P3
# CREATOR: GIMP PNM Filter Version 1.1
10 10
255
193 #comment
194
192
192
192
192
192
192
192
192
192
192
192
192
192
0
0
153
192
192
192
192
192
192
192
192
192
192
192
192
192
192
192
192
192
192
192
192
192
192
192
192
0
0
153
0
0
153
192
192
192
192
192
192
192
192
192
192
192
192
192
192
192
192
192
192
192
192
192
0
0
153
0
0
153
0
0
153
192
192
192
192
192
192
0
0
153
192
192
192
0
0
153
0
0
153
0
0
153
0
0
153
0
0
153
0
0
153
192
192
192
192
192
192
192
192
192
0
0
153
0
0
153
0
0
153
0
0
153
0
0
153
0
0
153
0
0
153
192
192
192
192
192
192
192
192
192
0
0
153
0
0
153
0
0
153
0
0
153
0
0
153
0
0
153
0
0
153
192
192
192
192
192
192
192
192
192
0
0
153
0
0
153
0
0
153
0
0
153
0
0
153
0
0
153
0
0
153
192
192
192
192
192
192
192
192
192
0
0
153
192
192
192
192
192
192
192
192
192
0
0
153
0
0
153
0
0
153
192
192
192
192
192
192
0
0
153
192
192
192
192
192
192
192
192
192
192
192
192
192
192
192
0
0
153
0
0
153
192
192
192
192
192
192
192
192
192
192
192
192
192
192
192
192
192
192
192
192
192
192
192
192
192
192
192
0
0
153
192
192
192
192
192
192
192
192
192
192
192
192
